<svg xmlns="http://www.w3.org/2000/svg" viewBox="0 0 24 24" fill="black">
  <path d="M12 2c5.523 0 10 4.478 10 10 0 5.523-4.477 10-10 10-5.522 0-10-4.477-10-10C2 6.478 6.478 2 12 2Zm0 1.363a8.637 8.637 0 1 0 0 17.274 8.637 8.637 0 1 0 0-17.274Zm4.358 11.077a.625.625 0 0 1-.344.814l-2.374.965 2.375.967a.625.625 0 0 1 .37.733l-.027.08a.625.625 0 0 1-.815.344l-3.56-1.45-3.558 1.45a.625.625 0 0 1-.472-1.158l2.373-.966-2.373-.965a.625.625 0 0 1-.37-.733l.027-.081a.625.625 0 0 1 .814-.344l3.559 1.449 3.56-1.449c.32-.13.684.024.815.344ZM12.023 5.61c2.16 0 3.913 1.546 3.864 3.455 0 1.257-.743 2.348-1.877 2.952l.149.699c.071.341-.146.672-.448.672h-3.424c-.298 0-.494-.33-.423-.672l.125-.697c-1.111-.605-1.878-1.697-1.878-2.976 0-1.886 1.753-3.433 3.913-3.433Zm1.435 1.945a.975.975 0 0 0-.973.972c0 .535.437.972.973.972a.973.973 0 0 0 0-1.944Zm-2.917 0a.993.993 0 0 0-.972.972c0 .535.41.972.973.972a.958.958 0 0 0 .972-.972.974.974 0 0 0-.972-.972h-.001Z"/>
</svg>
